<?xml version="1.0" encoding="UTF-8"?><svg id="Layer_1" xmlns="http://www.w3.org/2000/svg" viewBox="0 0 2686.52 2310.46"><path d="m960.96,759.56c-11.61-33.8-32.45-57.35-55.2-82.83,29.05,16.91,48.54,42.37,63.75,72.15,3.74-45.32,5.99-89.98-22.42-130.27,25.89-2.53,31.23,49.34,41.59,64.95,3.84-19.7-1.98-42.36,5.92-62.8,1.64-21.97,27.44-30.82,24.79-47.18-.93-2.99,2.56-4.95,4.87-5.95,36.37-10.37-.16-92.97,19.21-134.36,27.43-42.44,36.22-96.9,11.32-142.59-6.49-13.02-12.49-26.22-13.24-41.1-.19-3.87-1.14-7.84,3.31-10.37,4.97-6.32.98-15.22,2.18-23.55,36.29,21.06,22.9,16.65,21.95-17.71,4.6-.89,3.67,4.87,7.78,5.21,1.57-4.99.99-28.44,9.8-18.59,12.21,5.97,7,10.02,16.05,20.17,2.09-8.71-.14-16.02.74-24.84,9.92,10.67,18.95,20.39,29.49,31.74,1.39-10.03,2.51-18.15,3.7-26.81,5.11,2.67,3.62,8.44,7.38,11.03,6.83-11.7,1.3-20.15,17.85-7.03,7.98,3.52,8.88,4.3,10.28,10.21,4.98-6.68,4.04-15.17,8.97-21.95,5.52,6.6,4.43,14.56,7.08,21.2,3.88.9,3.18-5.93,7.07-4.37,6.69,3.53,5.38,12.67,6.51,19.06,6.12,1.03,5.29-6.29,10.25-7.32,19.36,30.67,6.81,68.83-12.33,96.32-52.8,70.7,50.29,255.63,129.48,46.66,20.23-51.65-25.88-105.73,8.22-154.9,5.16,2.38,3.1,8.28,6.69,10.95,12.48-5.17,8.69-42.79,25.82-36.02,13.06-5.74,8.16,17.3,12.15,27.45,7.25-10.38,7.46-21.94,14.28-31.44,3.69,11.38,4.99,54.14,11.5,18.74,4.84,6.29,4.51,17.05,11.31,3.98,6.57,5.6,10.05,5.95,12.07-2.91,5.76,5.04,4.64,9.14,9.51-.58,3.62,1.97,4.62,9.16,10.88,5.77.23-.12,1.31.73,1.55,1.32.8,8.62,6.78,6.42,9.79-.05,15.28-16.06,8.12,20.06,9.49,29.08,6.43-5.23,4.82-14,11.81-18.24,15.77,27.19,9.91,59.69-4.33,86.12-17.68,31-33.34,62.53-33.79,98.89-9.5,77.87,1.21,163.95,66.98,215.35,88.25,51,70.5-174.53,215.28-156.66,65.67,8.71,130.42,4.47,194.97-9.8,30.07-8.1,51.55,25.59,28.77,48.37-52.16,58.25-78.27,132.84-124.77,194.67-56.03,78.38-176.32,12.11-226.04,98.54-12.04,13.43-1.71,24.31,7.3,36.02,14.98,23.47,36.5,23.24,60.92,19.86-8.07,9.41-18.44,12.54-32.51,13.02,26.68,23.94,56.3,16.3,88.51,12.58-13.64,19.11-31.49,25.75-52.61,27.23,20.7,10.68,41.03,9.16,63.85,16.19-15.45,9.23-29.99,9.22-46.17,11.97-19.14,11.86,46.19,15.48,53.56,14.33,6.22-1.66,20.81.95,7.71,5.63-98.83,19.26.68,24.63,35.52,35.28-13.96,15.65-42.81-.22-60.45,5.68,23.67,20.23,53.7,23.18,81.67,34.67-22.24,9.41-44.23,19.27-69.81,15.25,28.73,25.82,70.44,23.66,105.72,34.08-18.91,8.7-35.35,20.37-57.61,25.53,32.38,14.6,61.94,28.55,96.32,37.75-25.03,16.02-46.05,17.59-74.13,17.11,12.88,22.64,48.24,2.54,68.57,16.4-18.63.91-36.16-1.19-54.59-3.78,9.79,24.19,56.18,15.11,79.23,21.63-12.38,16.09-29.42,9.61-46.77,17.48,22.19,7.04,43.21,11.51,67.21,13.22-12.33,6.78-24.46,6.92-36.52,12.3,15.23,5.48,25.77-1.62,41.81,2.7-23.42,12.81-46.27,15.87-70.63,13.14,27.15,38.75,76.11,40.99,115.97,54.78-28.46,11.92-58.39,15.23-88.68,18.74,32.36,16.02,66.8,25.25,104.36,32.97-26.22,13.14-50.74,11.21-78.21,11.66,35.33,18.8,74.11,27.92,114.89,19.24-15.77,25.96-41.05,26.74-66.17,32.42,23.81,8.88,46.98,12.25,68.72,20.7-25.57,7.94-50.58,2.1-75.79-1.98,24.67,15.78,52.42,25.13,77.74,39.55-26.26,5.68-51.79,3.61-77.33-3.34,23.57,23.98,56.76,34.7,78.52,60.69-21.57-5.74-42.74-11.96-64.3-21.24,7.83,13.84,30.82,19.62,34.39,35.38-11.49,2.71-22.12-16.46-35.67-17.47,32.17,34.59,74.25,42.97,116.38,56.8-26.61,2.49-52.78,7.37-79.66,5.19,24.71,13.97,52.51,20.51,77.78,33.25-35.02,1.16-69.07-2.33-101.28-18.05,14.43,17.29,33.68,29.06,49.56,44.69-10.12-2.21-18.47-7.91-28.36-14.16.74,8.09,6.32,12.47,9.58,20.99-12.45-8.53-20.51-18.33-31.12-25.49,4.15,16.12,12.68,30.46,17.44,46.47-68.85-59.09-72.71-179.98-107.02-262.17-81.36-198.26-188.83-383.24-293.52-569.5-6.84,13.02-20.24,24.79-14.8,38.78,6.33,34.51,21.27,71.87,5.73,105.7-21.75-15.74-35.98-47.12-44.52-73.55-2.92-14.03-2.9-27.86-12.86-39.78-9.69,15.4-9.27,34.38-19.61,49.56-26.86-49.91-21.59-109.15-13.75-164.23-6.08,3.75-6.55,8.56-7.64,12.75-7.36,28.09-21.88,52.69-36.96,77.06-9.69,16.6-30.67,15.7-47.53,16.41-54.72-7.52-27.56-80.47-114.94-72.04,16.56-10.12,36.29-11.38,52.76-22.93-17.49-4.73-33.71-.54-51.21-1.78,2.06-9.95,20.17-12.75,28.64-17.57,8.84-.78,47.84-37.37,33.24-40.78-39.05,5.92-31.51-29.94-12.04-49.39,11.89-7.35,25.91,9.97,30.29,20.42,3.48,9.4,3.75,9.36,12.21,5.08,14.43-7.3,29.68-12.33,45.36-15.95,24.21-7.23,44.61,1.56,66.18,11.11-2.74-15.15-18.2-17.93-29.51-26.99,71.05,11.2,27.45,77.07,46.31,121.82,3.48-.43,1.06-4.04,3.72-5.95,5.71,5.11,5.3,13.93,11.55,20.91v-23.63c9.48,12.51,11.94,20.65,12.66,37.53,2.8-12.31-2.56-22.12,1-33.14,7.26,9.81,5.42,20.89,9.23,31.32,6.07-5.63,16.67-16.09,8.75-23.68-7.55-7.76-6.22-18.81-11.36-27.93-33.69-57.77-42.07-135.37-100-175.21-3.34-2.08-7.57-4.24-8.5-7.84-11.98-23.06-62.28-27.24-47.83-62.9,13.68-20.41-7.5-43.99,1.52-64.37,7.03-6.48-10.81-13.12-1.09-18.78,16.1-8.11,3.77-33.91,14.95-53.11.52-4.38,6.61-10.7,1.12-13.73-8.23-.96-7.6,10.89-15,14.46-2.08-8.97,2.56-15.59,4.09-23.3-4.62,5.39-9.24,10.79-13.87,16.18,1.27-16.52,4.4-32.33,4.68-49.15-33.8,36.87-45.54,89.9-87.75,120.04-19.87,15.78-34.71,43.72-64.49,34.14-38.24-8.87-72.57-27.39-102.56-50.89-2.6-6.23,2.85-15.5,1.29-23.23-18.19,23.74-6.53-11.4-6.38-22.87-5.18-1.19-.51,6.27-5.86,5.17-10.37-4.99-2.93-21.73-5.04-30.93-5.52,8.83-1.36,21.38-10.2,29.84-.01-17.32,8.24-33.7,5.5-51.34-7.61,12.79-3.68,28.53-11.25,44.09-2.66-12.86-1.17-23.72-2.42-34.6-5.67,38.43-16.31,73.68-42.69,103.03-3.65,4.84-4.65,9.12-2.65,15.11,14.78,39.63,13.73,81.45,12.94,123.11-.35,48.29-36.24,86.26-62.99,123.29-13.15,16.56-20.55,35.01-24.04,55.38-6.3,36.74-26.08,66.73-47.55,95.9-4.04,4.56-10.53,10.65-16.93,8.5-4.42-1.79-2.69-6.85-3.01-10.55-1.2-77.72-14.9-7.11-49.12,2.94,6.95-15.98,26.02-28.13,33.46-45.63,10.29-15.23-16.39-15.62-25.13-21.52-24.61-6.65,5.43-18.53,13.27-26.65,8.9-.3,18.94,6.87,28.25,9.17-9.31-23.91-33.78-44.86-63.57-39.52-75.06,8.28-131.9-50.06-153.07-117.24-22.63-91.33-199.08-198.02,14.03-152.67,148.57,6.51,188.96-39.35,279.08,113.21,7.84,13.55-23.23,18.72-29.44,28.76-15.46,15.66-33.03,28.7-50.24,42.24-7.35,5.78-7.07,6.6.74,15.09-9.61-3.85-15.37-.62-19.06,8.66-11.62,13.14,4.31,27.1-3.11,41.39-37.41-51.16-85.12-11.47-124.98-61.23,27.87,6.51,53.41,8.59,79.35,6.36-25.54-6.11-52.24-5.76-78.43-14.07,10.62-3.39,17.62,6.23,28.22-.62,14.83-2.42,34.78,4.58,50.57-2-17.87-1.28-35.36-4.29-52.9-7.27,14.88-1.71,29.75,3.54,47.46-.29-19.18-.96-35.34-3.52-51.5-6.65,17.41-2.24,34.73,3.26,54.48,1.12-57.95-35.15-94.8-93.79-147.02-133.89,103.81-10.15,212.31-1.57,273.93,95.55-26.97-106.79-141.62-111.96-233.37-104.76-16.98,6.51-93.6-21.85-89.59-1.3,54.35,75.38,83.3,207.55,192.51,214.9,15.23,1.37,33.8-4.61,42.71,11.6,23.63,27.18,42.33,64.84,83.05,66.64Zm628.56-43.79c22.7-4.4,42.05-17.77,66.26-18.2,24.18-2.18,48.53-2.22,72.56-6.41,106.09-20.2,149.87-140.82,203.04-222.37,2.37-28.98-132.82,23.43-44.56,6.12-43,34.73-102.79,113.94-114.12,155.73,12.95-3.04,25.72-6.37,41.11-8.01-17.64,9.78-36.17,10.25-51.87,18.76,12.82,1.51,25.24-.68,37.85-.69-8.34,2.04-16.68,4.08-27.21,6.66,8.53,3.77,32.63-5.15,19.78,5.43-20.76,14.73-46.55,14.42-70.79,14.04-.42,11.5,13.56,5.02,10.89,11.53-7.65,5.4,3.94,1.46,5.67,5.3-49.72,12.15-104.74-.65-148.6,32.13Zm-57.93-38.97c-.36-11.5,32.46-52.43,11.43-53.94-7.41-.54-14.92.02-22.18-2.09-14.67.97-10.76,24.77-5.94,33.6,8.74,15.75,55.15,143.43,74.46,102.56,4.65-5.25-.43-11.22-5.78-7.12-6.53,3.78-10.39.43-13.69-4.48-41.45-58.81-3.67-35.3-6.94-83.41.87,6.51,1.45,12.16,5.7,18.37,2.58-10.77-.7-20.44,1.82-32.45,2.01,14.08-2.57,32.77,14.34,25.86,12.06.08,2.51-9.14,7.91-11.57,4.01,7.95,2.85,11.87,13.97,8.14,3.53-.18.22-5.89,3.54-7.06,3.27,1.33,3.42,5.89,7.38,5.69,2.17-7.27,1.42-14.87,1.61-22.01,3.08-.53,3.09,3.61,6.02,1.66,0-3.34-1.33-7.68.24-10.19,8.07-25.32-8.15-51.98-6.03-78.52-3.54-78.21,93.12-69.96,145.82-86.8-103.81-25.69-154.1,37.09-177.7,131.2-7.62,31.06-37.91,48.65-55.99,72.55Zm-147.9,41.11c40.57-17.92,78.24-11.2,115.24,13.41-.92-75.75-84.1-65.26-115.24-13.41Zm-23.48,53.76c4.81,16.62,24.59,25.26,39.1,32.75,25.9,11.18,57.98-5.63,69.72-29.41-60.05,40.8-64.48-6.34-108.82-3.34Z"/><path d="m1420.89,1369.89c-10.56,5.13-16.46,8.2-20.96-5.01-13.43-28.41-20.96-60.39-37.48-86.91.94,27.09,18.21,53.41,24.41,80.32,4.33,12.42-.79,8.52-6.97,14.68,58.21,78.62,76.08,180.11,104.67,272.77-14.78-10.3-27.19-18.94-39.6-27.58h.04c-61.01-124.73-46.45-295.63-149.73-396.18-66.49,9.93-135.99,13.5-198.65-15.19-45.3-27.15-21.96,86.98-135.38,102.34-49.32,8.58-107.46-6.95-129.06-56.17-26.67-32.84-68.44-9.11-77.78-80.35-16.39-67.83,55.88-92.35,54.61-152.88-3.53-60.74,59.52-93.51,96.3-132.68-14.15,25.54-37.08,44.94-55.25,67.59-11.93,13.53-17.98,29.52-18.05,47.31,7.19,17.64-38.93,137.47-49.74,90.41-33.79,41-18.55,133.19,46.19,127.56,65.91-7.02,125.13-40.3,188.53-56.81,17.79-3.86,32.54.14,44.34,14.23,1.19,1.42,2.21,3.37,5.82,2.81,1.95-30.87-39.38-50.74-69.62-35.7-7.9,6.53-116.61,62.84-87.37,23.98,7.48-10.19,14.54-20.29,14.62-33.84,22.17-38.49,98.23-10.56,134.52-5.47,56.55,9.04,33.59-88.47-14.97-69.68-17.75,6.04-36.25,9.59-54.08,15.87,85.39-43.61,75.81-81.68,45.71-161.85-.41-27.69,22.93-41.3,35.24-9.11,5.05,16.3-13.92,28.73-6.48,45.98,7.76,33.66,22.44,65.14,29.42,99.05,3.37,8.35,11.72,59.25,24.15,46.67,17.58-21.54,51.37-7.97,41.85,20.21-26.91-11.43-35.34,5.47-51.26,24.65,23.52,1.21,48.32-5.75,72.26,4.08,19.55,6.93,46.74,24.56,32.68,48.27,93.99,49.85,174-101.56,197.06-46.93,10.07,43.78,6.82-28.35,39.45-32.35,34.11-11.55,48.59,28.43,21.46,48.22-38.63,42.08-98.5,36.42-148.07,54.83,83.3,7.97,193.43-33.77,194.07-131.38.25-20.13-3.49-39.76-8.56-59.14-9.47-34.17,10.02-63.45,9.54-99.35,11.79,13.2,14.69,28.92,23.26,41.99,2.83-15.48-7.18-29.75-9.81-44.93-4.69-5.5-4.91-63.01,1.65-41.18,15.82,78.3,22.38,160.06-8.28,235.9-4.52,10.82-4.56,21.01-.44,31.89,13.42,31.01,18.26,62.06,19.97,96.14-16.59-6.95-28.27-30.92-31.29-.64-7.72-3.86-11.24-19.42-21.81-16.67,2.96,61.93-28.38,85.31-53.42,136.64-3.26,17.15-14.64-7.25-17.99,3.97,0,0,.31-.37.31-.37Zm-322.15-168.46c18.4,9.15,61.96,21.34,78.92,10.61-14.27-8.05-59.75-14.72-78.92-10.61Zm-271.17,33.57c30.21,1.53,59.04-4.61,86.13-18.61-28.71,6.2-57.42,12.41-86.13,18.61Z"/><path d="m1676.22,2066.23c2.94,18.33,4.63,36.35,0,56.86-12.2-23.9-19.76-47.15-28.47-69.99,1.48,20.5,9.46,39.62,13.53,61.71-7.31-7.6-7.88-24.45-12.21-6.04-5.77-19.48-9.84-38.26-17.66-55.98-1.59,25.98,5.5,51.14,7.88,77.13-31.79-52.69-31.25-121.26-44.99-181.08-5.69-50.42,31.29-94.59,34.53-144.74-13.54,26.4-24.42,53.78-35.51,81.33.6-13.86,1.2-27.73,1.8-41.59-69.07,142.39,27.76-139.69,15.25-168.64-7.63,42.92-18.76,84.76-35.88,124.96,4.29-25.28,11.3-50.14,12.43-75.9-3.58,5.8-3.97,12.29-4.38,19.03-3.44-1.96-.26-5.76-3.02-7.25-6.12,21.39-9.56,43.68-20.89,63.39,6.67-26.08,14.56-51.81,16.07-79.03-7.63,29.48-18.39,57.79-30.97,85.86-7.03-130.92-63.28-167.99,53.34-278.42,38.73,84.68,140.44,155.59,127.88,254.19-1.12,92.37-54.08,186.06-26.8,276.38,7.21,27.57,18.31,54.8,20.88,83.17-16.2-24.07-27.26-50.96-42.83-75.34Z"/><path d="m1894.6,1702.51c35.11,35.67,77.84,62.39,113.53,97.64-30.84-7.88-60.29-18.88-89-33.11,36.51,46.98,66.61,98,100.18,149.12-70.67-37.39-130.72-94.54-205.13-126.66-23.55-10.62-48.01-26.69-52.52-54.13-2.29-18.65-7-42.93,9.49-56.37,6.93-5.35,14.23-8.37,22.53-2.97,9.31-18.69,6.5-60.29,36.89-57.63,45.51,6.41,56.32-46.77,82.55-72.1,15.12,26.55,22.91,59.85,30.36,90.2,7.16,37.47,1.67,77.6,26.47,109.29-25.56-13.6-52.37-24.83-75.35-43.27Z"/><path d="m1956.56,1992.19c-25.18-6.76-47-22.25-72.4-28.66,29.94,16.57,60.9,31.28,89.3,50.84-30.3-1.57-57.46-14.33-86.18-23.04,21.61,20.97,40.03,44.09,55.43,72.18-39.91-8.98-71.33-28.81-94.58-61.66.26,11.63,11.5,30.11,46.87,77.21-27.76-14.98-50.09-28.4-71.39-50.3,7.63,18.42,17.95,35.2,27.18,52.92-17.63-11.52-31.53-27.17-47.53-40.76,2.99,10.59,10.69,19.02,14.72,31.46-12.9-8.27-19.45-19.94-30.16-30.41,2.03,10.22,8.17,16.13,10.56,23.91-21.73-17.23-38.56-38.22-49.45-64.11,1.53,40.32,19.22,74.85,37.27,109.46-43.37-28.98-71.55-80.13-60.8-132.74,8.45-45.06,15.81-91.96,36.68-133.18,15.35-31.74,51.61-22.71,74.49-4.6,49.6,37.28,99.45,75.35,142.6,120.01-23.93-9.78-48.89-13.68-74.67-16.4,13.49,9.47,26.98,18.94,40.47,28.4-9.82-1.77-18.12-7.49-28.62-6.92,11.44,9.22,34.94,15.17,40.21,26.4Zm-29.29,62.33c-1.47-9.77-23.57-17.92-32.1-26.91,8.25,12.26,20.7,18.89,32.1,26.91Z"/><path d="m1490.76,1512.39c-27.33,82.28-46.58-49.21-50.71-74.96,1.38-62.75,65.81-100.67,75.41-162.79,45.04-53.41,67.69,138.49,70.03,164.51,5.04,60.85-51.63,98.81-74.35,150.39,6.79-36.75,17.06-72.85,14.79-110.63-1.93,9.84-1.78,20.02-5.72,31.34-1.34-17.05-3.3-7.58-3.42,3.09-5.69-18.98-2.45-21.6-4.91,4.77-3.19-4.99-1.8-9.53-2.8-13.58-7.87,9.95-5.48,22.19-7.21,34.59-13.46,34.35-14.2-15.66-11.11-26.72Z"/><path d="m1722.77,1359.44c7.89-65.6,54.4,6.29,71.14,27.84,20.56,25.77,41.77,50.87,68.52,70.7,15.15,13.23,43.04,37.4,31.53,59.05-22.96,26.65-58.32,78.92-89.89,32.33-34.92-59.27-77.75-118.69-81.3-189.92Z"/><path d="m1637.67,1495.19c3.93-78.06,82.76-66.42,104.44-3.41,15.75,48.63,66.36,122.2,10.93,160.56q-7.97,7.2-16.52,1.54c-43.89-41.75-93.08-95.79-98.85-158.69Z"/><path d="m1608.19,2145.76c-20.69-27.5-40.8-54.45-54.04-85.85,3.83,19.72,11.22,38.4,12.2,58.53-11.17-16.57-13.85-36.55-22.4-54.4-2.06,18.71,4.79,32.08.81,52.11-8.49-18.08-8.58-35.65-14.89-51.5-1.18,14.35,2.63,28.53.78,44.27-7.93-13.73-2.79-24.38-9.99-38.49-2.38,14.15.02,27.42-4.66,40.89,3.05-106.01-13.76-211.4-32.57-315.96-1.96-7.85-2.87-22.31,6.67-10.67,39.37,43.01,54.35,102.16,78.94,153.95,27.04,65.88,23.51,138.58,39.14,207.11Zm-18.07-56.15c-5.58-20.37-11.17-40.74-16.75-61.1-3.6,16.17,9.75,42.99,16.75,61.1Z"/><path d="m1618.76,1429.41c-15.51-43.68-25.42-85.88-29.13-131.59-2.37-31.43,9.46-56.42,32.11-77.14,11.58-18.01,45.59,57.22,50.55,67.77,33.36,93.71,31.57,93.11-53.54,140.96Z"/><path d="m1174.89,591.63c-9.88-3.68-7.5-17.4-12.93-25.14-5.49-8.57,13.2-16.28,19.91-13.69,1.04.49,2.54,1.07,3.13-.24,6.61-14.01,17.65,9.94,28.14,11.53-26.77-37.74-2.54-11.49,4.19-38.02-1.33-13.02-3.89-27.33,10.01-34.42,8.92-3.63,11.89-13.22,19.28-18.27,9.31-4.01,18.13-8.92,26.61-14.16,11.33,42.45-29.18,99.24,22.23,129.08,12.73,8.35,10.2,17.98-3.71,5.3-.37,4.58,6.16,10.05,4.08,11.06-6.4,3.08-.07,6.35-1.82,9.92-9.2.52-17.88-5.31-28.31-5.26,4.39,11.99,18.27,25.33,6.16,36.5-5.22,4.31-7.3-1.96-11.48-2.87-1.01,9.27,18.08,18.38,7.94,24.4-15.8,7.96-26.12,7.42-36.4-9.08-15.12-26.1-43.56-40.16-57.03-66.64Zm28.23-14.32c-3.88,8.77,38.2,54.58,30.33,33.93-11.45-10.07-21.11-21.74-30.33-33.93Zm36.98,56.09c3.62,10.49,13.45,14.41,20.71,21.09-5.01-8.94-9.6-18.25-20.71-21.09Z"/><path d="m935.66,973.44c12.52-5.28,17.85-18.66,30.11-25.14,24.52-20.47,67.07-1.8,53.33,32.55-10.62,25.71-39.55,34.86-62.14,47.26-16.2,6.68-30.99,18.89-47.85,22.57,3.11-33.89,11.89-66.07,30.2-95.09,51.92-79.5,126.43-21.11,91.54,56.48-17.37,26.33-50.55,38.24-74.96,57.41-8.43,5.53-10.09,4.7-15.17-4.6-22.75-25.71,69.93-40.14,83.01-71.35,28.79-72.71-63.22-82.74-88.07-20.1Z"/><path d="m1630.09,1147.35c13.62-94.66,85.75,36.14,104.41,65.12,16.38,22.57,23.45,96.37-21.93,77.7-25.22-12.89-84.1-113.58-82.48-142.83Z"/><path d="m1084.23,571.02c13.39,34.27-68.99,120.61-78.83,166.93-21,55.61-56.52,103.76-85.42,155.29-23.8,37.19-52.01,73.32-53.34,119.52,14.28-28.49,29.92-55.85,58.77-75-47.78,50.23-21.72,119.25-64.46,142.83-91.9,65.65-19.13-19.59-21.51-71.24,4.64-42.4,42.51-65.79,63.06-99.95,14.23-18.53,14.98-43.09,27.61-61.73,35.84-34.16,49.94-82.84,70.18-126.59,20.28-54.44,67.58-94.81,83.94-150.07Z"/><path d="m1869.96,1414.35c-7,54.6-87.66-76.25-95.69-91.72-13.33-20.12-8.03-43.88-4.75-66.2,1.22-7.12,2.08-6.93,9.57-5.51,43.87,4.5,87.13,123.61,90.87,163.43Z"/><path d="m1174.89,591.63c9.16,22.84,30.97,35.89,42.02,57.58,7.4,13.25,19.61,22.16,28.61,33.9,7.02,5.08,14.13-7.07,21.72-8-21.48,37.83-52.49-7.61-69.8-25.04,11.83,17.92,18.95,40.12,44.79,47.31-23.41,4.56-37.57-16.88-53.02-30.28,5.46,16.28,20.56,25.32,29.53,39.54-10.03-.52-18.34-6.87-28.29-6.92,1.16,5.03,6.92,4.96,8.92,8.89-16.51,8.18-25.17-5.45-36.47-12.5,4.02,13.11,52.8,33.48,8.52,23.84,2.23,5.42-.04,5.23-2.34,6.37-17.44-11.31-28.62-28.08-40.43-45.12l.24.48c-.88-13.48-18.87-17.29-20.49-28.01,3.9-4.79,8.09,2.62,12.62,1.5q-2.73-9.51,4.35-21.35c9.35,2.6,15.3,10.42,24.62,16.32-5.1-10.63-13.16-17.27-19.1-25.83q8.07.48,27.16,21.02c-4.36-16.01-13.84-27.08-26.52-39.52,17.56,3.33,26.52-3.39,29.25-19.71,12.81,14.34,10.86,31.68,25.48,43.89-3.59-12.44-17.49-25.25-11.37-38.37Z"/><path d="m1387.51,1088.56c.89,12.12-4.05,21.41-13.42,28.57-9.74,3.86-28.18,29.57-36.64,19.79-17.85-28.06-29.27-113.08-4.2-137.93,15.38-15.43,36.7,3.09,41.91,19.25,8.84,22.37,9.23,46.74,12.35,70.32Z"/><path d="m1653.76,967.49c17.99,25.2,33.89,47.97,44.08,74.09,11.77,62.35-66.4,58.43-79.19-.72,2.53-27.12,30.68-42.72,35.11-73.38Z"/><path d="m1078.51,863.17c13.57-9.34,22.14-25.33,42.22-30.08-3.62,8.84-34.18,42.59-23.98,41.42,13.03-19.68,28.94-36.97,44.93-54.18,14.06-20.79,30.22-48.84,59.92-41.6,11.39,1.93,14.2,10.92,6.46,19.82-7.83,11.98-26.75,10.59-30.81,24.91-9.42,21.71-13.03,51.17-40.24,57.8,12.88-22.3,26.83-41.48,34.24-64.39-11.35,1.86-24.77,39.13-35.06,49.69-6.16,5.45-4.78,21-13.48,21.5-3.57-1.05-1.7-3.83-1.17-5.78,4.47-24.91,19.78-44.37,33.95-64.72-8.6-3.07-15.94,15.05-22.85,19.83-11.07,20.44-11.32,51.76-39.31,55.22-14.78,8.85-19.2-18.26-29.7-24.87-5.51-13.69,18.01-29.35,27.85-37.65,12.18,16.49-8.57,19.06-12.96,33.1Z"/><path d="m1460.64,1011.15c.25,18.22-11.27,75.07-36.76,59.62-20.36-25.26-45.58-74.89-16.35-101.39,28.53-24.08,56.75,13.51,53.12,41.77Z"/><path d="m1788.36,1229.55c-43.09-14.93-62.58-60.14-87.05-95.07-4.51-10.11-16.88-26.02-4.37-34.66,9.13-7.01,22.87-12.06,31.47-1.55,28.18,38.57,51.14,84.06,59.95,131.28Z"/><path d="m1016.75,880.58c.19-18.88-36.53-32.2-28.19-43.94,3.83-2.8,4.7,2.48,6.96,4.05,7.45,7.2,21.59,9.1,19.25,22.81,6.21-6.53,17.37,2.41,21.94-10.52-20.59,10.84-31.37-14.11-42.35-26.37,16.95-3.26,22.75,33.73,45.71,6.69-13.88,3.08-15.84,6.17-25.02-7.25-5.19-9.12-14.53-12.56-5.56-24.42,9.46,8.91,17.31,21.01,33.29,17.64-11.91.25-16.85-9.36-23.65-16.25-2.46-2.49,7.02-3.84.83-7.49-5.1-3-.12-5.39,1.05-8.17,5.08-9.9,15.39-2.99,24.28-2.16-.17-13.07-15.48-11.19-17.77-23.82,7.48-1.69,14.45,2.46,23.03,1.94-51.58-32.13,45.04-8.01,48.64,9.62-4.51,6.55-12.42-.85-17.69-3.39-2.3,4.55,3.92,4.23,3.62,7.98-7.44,3.17-11,11.96-19.29,14.95-5.82,2.22,11.77-.07.09,12.6-3.96,32.62-25.71,52.8-49.17,75.48Z"/><path d="m1557.38,1082.08c19.62,15.59,36.64,29.33,39.73,53.95,2.27,33.98,10.9,81.06-24.79,100.11-23.04-6.88-18.11-127.7-14.94-154.06Z"/><path d="m1444.96,1618.18c7.23,34.24,49.58,38.98,57.39,72.73,4.73,18.79,31.23,89.9-3.44,86.93-14.32-8.23-24.44-19.56-28.14-35.82-8.1-41.22-22.57-82-25.81-123.84Z"/><path d="m1300.02,1058.67c1.7,59.87-61.79-.35-68.17-27.24-6.4-15.75-.95-30.76,12.44-38.67,30.65-11.94,59.92,34.97,55.73,65.92Z"/><path d="m1256.46,1191.7c-56.97-.51-6.09-84.68,33.78-65.39,15.52,4.72,28.48,22.31,28.23,38.2-9.3,21.49-40.7,25.75-62.02,27.19Z"/><path d="m1312.96,874.2c2.21-1.62,4.56-.41,6.64.17,14.58,6.63,31.16-2.88,44.61,4.57,22.22,15.14,34.88,44.34,23.97,69.57-19.1,37-72.31-16.19-57.9-43.53,12.83-16.26-13.61-17.93-17.32-30.78Z"/><path d="m1282.07,873.22c-6.39,37.61-58.78,29.04-70.89-1.25-11.46-20.28,6.96-41.04,24.93-49.36,23.17-8.67,44.97,31.53,45.96,50.61Z"/><path d="m1333.09,584.02c29.64-8.12,64.65-38.9,94.79-31.08-76.07,21.16-111.48,78.88-123.5,154.46-32.51-45.3-13.03-93.65,28.72-123.38h-.01Z"/><path d="m1592.88,859.28c22.93,47.86,88.21,97.83,29.47,145-24.17,21.23-20.49-127.42-29.47-145Z"/><path d="m1106.15,971.51c-14.28.09-22.66-7.26-24.28-21.52-2.96-31.1,30.05-46.89,56.27-49.55,11.78-2.2,10.32,14.42,13.86,21.9,7.96,28.66-18.89,49.88-45.85,49.17Z"/><path d="m1078.9,718.95c-2.02-3-8.66-4.34-6.03-8.55,6.27-6.43,14.29,5.18,22.24,3.18-3.67-6.99-7.21-13.72-11.14-21.2,13.55-.72,6.97-10.26.51-17.07,15.47,1.02,28.47,5.1,39.47,18.14.18-11.43-9.55-11.32-11.66-21.05,7.91-.72,11.85,5.06,16.6,9.32,7.33,15.09,18.65,42.27,40.19,44.64-1.46,1.61,7.87,1.91,5.61,6.48-1.33,3.71-4.62,2.73-6.88,1.54-6.14-3.2-7.09,6.75-14.24,2.64,4.72,7.18,11.33,5.82,16.31,10.21-5.78,1.42-10.29-.3-14.88-1.58-5.47-1.53-5.51-1.41-3.87,5.53-3.76,1.94-7.35-2.25-11.33-.7,2.59,4.39,7.99,3.72,11.45,7.99-30.42-2.52-43.33-34.14-72.67-39.78l.35.28Zm33.34,2.8c5.62,10.49,16.56,18.24,28.22,21.75-9.9-7.63-19.06-14.69-28.22-21.75Z"/><path d="m1271.84,918.94c21.19-.18,35.27,18.3,45.92,34.31,17.17,24.21-20.83,40.37-38.32,24.07-13.72-10.73-42.45-17.84-37.21-39.59,2.11-15.16,16.43-18.43,29.61-18.78Z"/><path d="m1478.65,815.25c5.53,27.29,4.94,51.72,13.79,77.87,3.51,13.33,8.75,25.25-7.14,31.73,13.98,2.34,17.34,6.73,15.93,21.12-1.41,8.82-5.44,51.93-19.33,37.06-27.84-24.91-2.58-57.11-11.06-86.65-8.68-27.71-6.15-54.21,7.81-81.13Z"/><path d="m1480.02,1017.94c28.9,17.98,27.25,72.62,21.58,105.92-44.97-68.54-55.91,4.93-21.58-105.92Z"/><path d="m1241.44,1093.37c-3.95,24.08-40.23,38.18-54.64,15.15-20.03-32.27,34.14-78.43,54.64-15.15Z"/><path d="m1127.04,1013.18c19.77,4.71,57.21,2.76,62.12,27.17-7.59,53.11-128.43-26.24-62.12-27.17Z"/><path d="m1451.08,905.84c2.49,51.79-52.47,25.18-48.88-12.01,3.73-33.85,56.65-21.49,48.88,12.01Z"/><path d="m1188.04,1006.11c-35.71-6.9-60-23.61-13.02-45.12,34.54-13.43,60.49,43.37,13.02,45.12Z"/><path d="m1567.68,996c19.83,20.32,51.99,62.59,29.06,86.3-39.06-2.89-33.01-56.35-29.06-86.3Z"/><path d="m1204.99,940.23c-32.37,5.5-47.66-53.44-9.36-47.57,20.91,3.51,42.14,47.75,9.36,47.57Z"/><path d="m1093.84,570.71c-2.82-24.55-9.57-81.71,28.64-79.93,3.48.51,6.11,1.28,4.57,5.89-8.58,18.59-18.24,65.72-33.2,74.05Z"/><path d="m1078.55,718.67c18.55,17.86,42.57,29.4,61.87,46.76-19.73-1.84-28.5-14.62-48.78-14.44,6.52,5.28,11.56,9.35,17.67,14.29-19.08-.9-32.44-14-50.49-18.48-15.04-4.29-4.71-13.25,6-13.07,1.06-5.66-6.81-3.73-6.43-8.35,1.41-1.18,2.94-.54,4.44-.3,12.49,3.81,6.36-5.46,16.1-6.12-.02,0-.37-.29-.37-.29Z"/><path d="m1242.88,756.05c3.81-25.19,7.47-14.32,16.59-32.21,3.18,4.94,7.47,7.03,12.9,3.03,29.05-.13-18.59,27.98-29.5,29.18Z"/><path d="m1396.23,549.72c-12,6.12-37.4,25.4-41.76,5.33-2.29-14.66,31.82-10.83,41.76-5.33Z"/><path d="m1302.49,817.8c29.47-3.7,60.87,11.78,70.15,34.87-22.43-15.94-43.68-28.59-70.15-34.87Z"/><path d="m1333.1,584.02c-26.82,12.6-61.97-15.12-60.09-42.52,10.85,10.33,16.76,26.77,30.33,35.96,7.54,8.04,20.11,2.19,29.76,6.56Z"/><path d="m1009.58,887.48c-12.24,2.12-36.07-11.04-22.83-20.66,10.19-10.91,21.09,10.74,22.83,20.66Z"/><path d="m1315.55,454.96c5.49,15.64,8.08,29.55,10.12,44.55-12.14-9.19-16.89-28.61-10.12-44.55Z"/><path d="m1466.79,604.24c-15.15,6.36-29.03,11.6-42.36,18.08,13.21-12.65,30.15-20.08,42.36-18.08Z"/><path d="m948.61,915.63c-3.38-7.18-12.47-12.35-5.64-22.29,3.88,1.47,4.6,5.3,6.87,7.75,6.26,6.76,6.16,6.85-1.24,14.54Z"/><path d="m960.68,899.91c-14.06-10.48-14.64-13.15-5.51-23.7,5.7,3.26.39,8.78,1.88,11.32,2.2,3.76,4.87,6.69,3.62,12.38Z"/><path d="m977.73,868.44c-2.16-5.74-9.27-9.34-3.72-14.72,6.68-6.48,9.29,2.29,14.21,4.73-2.47,4.27-6,6.41-10.48,9.99Z"/><path d="m1420.57,1370.26c7.97,8.2,9.18,17.4,3.09,26.51-6.06-8.15-3.09-19.62-3.09-26.51Z"/><path d="m908.83,944.01c7.46-10.79,14.91-21.58,22.37-32.36-4.52,12.86-11.4,24.09-22.37,32.36Z"/><path d="m985.16,889.34c-.61,3.88-4.38,4.27-7.08,4.62-12.62-3.03,2.44-25.23,7.08-4.62Z"/></svg>